<svg width="32" height="32" viewBox="0 0 32 32" fill="none" xmlns="http://www.w3.org/2000/svg">
<path d="M30.4152 14.5862L28.4152 12.5862C28.076 12.2474 27.6264 12.0417 27.1482 12.0066C26.6701 11.9715 26.1952 12.1093 25.8102 12.395L19.6052 6.18997C19.891 5.80507 20.029 5.33031 19.9942 4.85217C19.9593 4.37403 19.7538 3.92433 19.4152 3.58497L17.4152 1.58497C17.2295 1.39921 17.009 1.25185 16.7663 1.15131C16.5236 1.05077 16.2635 0.999023 16.0008 0.999023C15.7381 0.999023 15.478 1.05077 15.2353 1.15131C14.9927 1.25185 14.7722 1.39921 14.5864 1.58497L6.58644 9.58497C6.40068 9.77069 6.25332 9.99119 6.15278 10.2339C6.05224 10.4766 6.00049 10.7367 6.00049 10.9993C6.00049 11.262 6.05224 11.5221 6.15278 11.7648C6.25332 12.0075 6.40068 12.228 6.58644 12.4137L8.58644 14.4137C8.92573 14.752 9.37519 14.9573 9.85304 14.9921C10.3309 15.027 10.8054 14.8892 11.1902 14.6037L12.0864 15.5L3.91394 23.6725C3.37099 24.2663 3.07801 25.0466 3.096 25.8511C3.11398 26.6555 3.44156 27.422 4.01051 27.9909C4.57946 28.5599 5.34594 28.8874 6.15035 28.9054C6.95477 28.9234 7.73513 28.6304 8.32894 28.0875L16.5002 19.915L17.3964 20.81C17.1106 21.1949 16.9726 21.6696 17.0075 22.1478C17.0424 22.6259 17.2478 23.0756 17.5864 23.415L19.5864 25.415C19.7722 25.6007 19.9927 25.7481 20.2353 25.8486C20.478 25.9492 20.7381 26.0009 21.0008 26.0009C21.2635 26.0009 21.5236 25.9492 21.7663 25.8486C22.009 25.7481 22.2295 25.6007 22.4152 25.415L30.4152 17.415C30.601 17.2292 30.7483 17.0088 30.8489 16.7661C30.9494 16.5234 31.0011 16.2633 31.0011 16.0006C31.0011 15.7379 30.9494 15.4778 30.8489 15.2351C30.7483 14.9924 30.601 14.7719 30.4152 14.5862ZM10.0002 13L8.00019 11L16.0002 2.99997L18.0002 4.99997L10.0002 13ZM6.91519 26.6725C6.70441 26.882 6.41928 26.9996 6.12207 26.9996C5.82486 26.9996 5.53972 26.882 5.32894 26.6725C5.11979 26.4617 5.00242 26.1769 5.00242 25.88C5.00242 25.5831 5.11979 25.2982 5.32894 25.0875L13.5002 16.915L15.0864 18.5L6.91519 26.6725ZM12.6252 13.2075L18.2077 7.62497L24.3752 13.7925L18.7939 19.375L12.6252 13.2075ZM21.0002 24L19.0002 22L19.5002 21.5L26.5002 14.5L27.0002 14L29.0002 16L21.0002 24Z" fill="black"/>
</svg>
