<svg width="32" height="32" viewBox="0 0 32 32" fill="none" xmlns="http://www.w3.org/2000/svg">
<g id="Asta Silenziosa 2">
<path id="Vector" d="M26.7398 26.3275C26.8299 26.4243 26.9 26.5381 26.9458 26.6622C26.9917 26.7864 27.0125 26.9184 27.007 27.0506C27.0014 27.1828 26.9697 27.3126 26.9137 27.4325C26.8576 27.5523 26.7783 27.6599 26.6804 27.7489C26.5824 27.8379 26.4678 27.9066 26.3432 27.9509C26.2185 27.9953 26.0862 28.0145 25.9541 28.0074C25.822 28.0003 25.6926 27.967 25.5734 27.9095C25.4542 27.852 25.3476 27.7715 25.2598 27.6725L20.8848 22.8662C20.436 23.0048 19.9609 23.036 19.4979 22.9574C19.0348 22.8789 18.5967 22.6927 18.2187 22.4138C17.8408 22.135 17.5336 21.7713 17.3218 21.352C17.1101 20.9328 16.9998 20.4697 16.9998 20C16.9984 19.5787 17.0492 19.1588 17.151 18.75L11.9998 13.0825C11.9888 13.3477 11.873 13.5977 11.6777 13.7775C11.4824 13.9573 11.2237 14.0522 10.9585 14.0412C10.6933 14.0303 10.4433 13.9144 10.2635 13.7192C10.0837 13.5239 9.98882 13.2652 9.99976 13C9.99905 12.3868 10.0926 11.7772 10.2773 11.1925L8.06226 8.74997C7.36086 10.0565 6.99572 11.5171 6.99976 13C6.99976 16.3375 8.06601 17.365 9.19601 18.455C10.276 19.5 11.4998 20.6762 11.4998 23.5C11.4998 24.6934 11.9739 25.838 12.8178 26.682C13.6617 27.5259 14.8063 28 15.9998 28C17.2798 28 18.306 27.48 19.2285 26.3637C19.3111 26.2596 19.4137 26.173 19.5302 26.109C19.6467 26.045 19.7747 26.0048 19.9069 25.9909C20.0391 25.9769 20.1727 25.9895 20.3 26.0278C20.4273 26.0661 20.5457 26.1294 20.6482 26.214C20.7507 26.2985 20.8354 26.4027 20.8972 26.5204C20.959 26.6381 20.9967 26.7669 21.0081 26.8993C21.0196 27.0317 21.0045 27.1651 20.9638 27.2916C20.9231 27.4182 20.8575 27.5353 20.771 27.6362C19.476 29.205 17.8748 30 15.9998 30C14.2765 29.998 12.6243 29.3125 11.4058 28.094C10.1872 26.8754 9.50175 25.2233 9.49976 23.5C9.49976 21.5262 8.78976 20.8412 7.80726 19.895C6.55726 18.6875 4.99976 17.1875 4.99976 13C4.99465 10.9507 5.56692 8.94149 6.65101 7.20247L5.25976 5.67247C5.1696 5.57561 5.09955 5.46182 5.05369 5.33769C5.00782 5.21357 4.98705 5.08157 4.99257 4.94935C4.99809 4.81714 5.02981 4.68733 5.08587 4.56746C5.14193 4.44759 5.22122 4.34004 5.31915 4.25104C5.41708 4.16205 5.53171 4.09337 5.65637 4.049C5.78104 4.00462 5.91328 3.98543 6.04542 3.99254C6.17756 3.99965 6.30697 4.03292 6.42616 4.09041C6.54535 4.1479 6.65194 4.22848 6.73976 4.32747L26.7398 26.3275ZM11.386 5.27122C12.7522 4.45555 14.3101 4.01663 15.9012 3.9992C17.4922 3.98177 19.0594 4.38644 20.4431 5.17199C21.8268 5.95753 22.9775 7.09586 23.7779 8.47098C24.5784 9.8461 25 11.4088 24.9998 13C24.9998 13.2652 25.1051 13.5195 25.2927 13.7071C25.4802 13.8946 25.7345 14 25.9998 14C26.265 14 26.5193 13.8946 26.7069 13.7071C26.8944 13.5195 26.9998 13.2652 26.9998 13C27.0001 11.055 26.4847 9.14479 25.5061 7.46395C24.5276 5.78311 23.1209 4.39177 21.4294 3.43174C19.7379 2.47171 17.8221 1.97732 15.8773 1.99897C13.9325 2.02062 12.0282 2.55753 10.3585 3.55497C10.1309 3.69123 9.96678 3.91231 9.9022 4.16959C9.83762 4.42686 9.87788 4.69926 10.0141 4.92685C10.1504 5.15443 10.3715 5.31858 10.6288 5.38316C10.886 5.44774 11.1584 5.40748 11.386 5.27122ZM20.0398 15.8962C20.1565 15.9565 20.2839 15.9932 20.4148 16.0042C20.5457 16.0152 20.6775 16.0003 20.8026 15.9604C20.9277 15.9204 21.0438 15.8562 21.1441 15.7715C21.2444 15.6867 21.327 15.5829 21.3873 15.4662C21.7906 14.7068 22.001 13.8599 21.9998 13C22.0001 12.0447 21.7723 11.1032 21.3354 10.2538C20.8985 9.4043 20.2651 8.67143 19.4878 8.11611C18.7106 7.56078 17.812 7.19906 16.8668 7.06102C15.9216 6.92298 14.9571 7.01262 14.0535 7.32247C13.8026 7.4085 13.596 7.5907 13.4794 7.82899C13.3628 8.06728 13.3456 8.34213 13.4316 8.5931C13.5177 8.84406 13.6999 9.05056 13.9382 9.16719C14.1764 9.28381 14.4513 9.301 14.7023 9.21497C15.3047 9.0084 15.9477 8.94864 16.5778 9.04067C17.2079 9.1327 17.807 9.37385 18.3252 9.74406C18.8433 10.1143 19.2656 10.6029 19.5569 11.1692C19.8481 11.7355 20 12.3631 19.9998 13C19.9996 13.5385 19.8656 14.0686 19.6098 14.5425C19.5495 14.6592 19.5128 14.7866 19.5018 14.9175C19.4908 15.0484 19.5057 15.1802 19.5456 15.3053C19.5856 15.4304 19.6497 15.5465 19.7345 15.6468C19.8193 15.7471 19.923 15.8297 20.0398 15.89V15.8962Z" fill="black"/>
</g>
</svg>
