<svg width="20" height="21" viewBox="0 0 20 21" fill="none" xmlns="http://www.w3.org/2000/svg">
<path d="M10.1825 14.067L3.93247 7.81705C3.8744 7.75898 3.82833 7.69004 3.79691 7.61417C3.76548 7.5383 3.7493 7.45698 3.7493 7.37486C3.7493 7.29274 3.76548 7.21142 3.79691 7.13555C3.82833 7.05968 3.8744 6.99074 3.93247 6.93267C3.99053 6.8746 4.05947 6.82854 4.13534 6.79711C4.21121 6.76569 4.29253 6.74951 4.37465 6.74951C4.45677 6.74951 4.53809 6.76569 4.61396 6.79711C4.68983 6.82854 4.75877 6.8746 4.81684 6.93267L10.6247 12.7413L16.4325 6.93267C16.5497 6.8154 16.7088 6.74951 16.8747 6.74951C17.0405 6.74951 17.1996 6.8154 17.3168 6.93267C17.4341 7.04995 17.5 7.20901 17.5 7.37486C17.5 7.54071 17.4341 7.69977 17.3168 7.81705L11.0668 14.067C11.0088 14.1252 10.9399 14.1713 10.864 14.2027C10.7881 14.2342 10.7068 14.2504 10.6247 14.2504C10.5425 14.2504 10.4612 14.2342 10.3853 14.2027C10.3094 14.1713 10.2405 14.1252 10.1825 14.067Z" fill="black"/>
</svg>
