<svg width="20" height="21" viewBox="0 0 20 21" fill="none" xmlns="http://www.w3.org/2000/svg">
<g clip-path="url(#clip0_957_1106)">
<path d="M17.9419 17.5579L14.0302 13.6469C15.1639 12.2858 15.7293 10.5399 15.6086 8.77251C15.488 7.00512 14.6906 5.35229 13.3823 4.15785C12.074 2.96341 10.3557 2.31932 8.58462 2.35957C6.81357 2.39982 5.12622 3.12131 3.87358 4.37395C2.62094 5.62659 1.89945 7.31394 1.8592 9.08498C1.81895 10.856 2.46304 12.5744 3.65748 13.8827C4.85192 15.1909 6.50475 15.9883 8.27214 16.109C10.0395 16.2297 11.7854 15.6643 13.1466 14.5305L17.0575 18.4422C17.1156 18.5003 17.1845 18.5464 17.2604 18.5778C17.3363 18.6092 17.4176 18.6254 17.4997 18.6254C17.5818 18.6254 17.6631 18.6092 17.739 18.5778C17.8149 18.5464 17.8838 18.5003 17.9419 18.4422C17.9999 18.3842 18.046 18.3152 18.0774 18.2394C18.1089 18.1635 18.125 18.0822 18.125 18.0001C18.125 17.9179 18.1089 17.8366 18.0774 17.7607C18.046 17.6849 17.9999 17.6159 17.9419 17.5579ZM3.12469 9.25006C3.12469 8.13754 3.45459 7.05 4.07267 6.12497C4.69076 5.19995 5.56926 4.47898 6.5971 4.05323C7.62493 3.62749 8.75593 3.5161 9.84707 3.73314C10.9382 3.95018 11.9405 4.48591 12.7272 5.27258C13.5138 6.05925 14.0496 7.06153 14.2666 8.15267C14.4837 9.24382 14.3723 10.3748 13.9465 11.4027C13.5208 12.4305 12.7998 13.309 11.8748 13.9271C10.9497 14.5452 9.86221 14.8751 8.74969 14.8751C7.25836 14.8734 5.82858 14.2802 4.77404 13.2257C3.71951 12.1712 3.12634 10.7414 3.12469 9.25006Z" fill="#424242"/>
</g>
<defs>
<clipPath id="clip0_957_1106">
<rect width="20" height="20" fill="white" transform="translate(0 0.5)"/>
</clipPath>
</defs>
</svg>
