<svg width="14" height="15" viewBox="0 0 14 15" fill="none" xmlns="http://www.w3.org/2000/svg">
<path d="M5.125 0.625H1.375C1.04348 0.625 0.725537 0.756696 0.491116 0.991116C0.256696 1.22554 0.125 1.54348 0.125 1.875V5.625C0.125 5.95652 0.256696 6.27446 0.491116 6.50888C0.725537 6.7433 1.04348 6.875 1.375 6.875H5.125C5.45652 6.875 5.77446 6.7433 6.00888 6.50888C6.2433 6.27446 6.375 5.95652 6.375 5.625V1.875C6.375 1.54348 6.2433 1.22554 6.00888 0.991116C5.77446 0.756696 5.45652 0.625 5.125 0.625ZM5.125 5.625H1.375V1.875H5.125V5.625ZM12.625 0.625H8.875C8.54348 0.625 8.22554 0.756696 7.99112 0.991116C7.7567 1.22554 7.625 1.54348 7.625 1.875V5.625C7.625 5.95652 7.7567 6.27446 7.99112 6.50888C8.22554 6.7433 8.54348 6.875 8.875 6.875H12.625C12.9565 6.875 13.2745 6.7433 13.5089 6.50888C13.7433 6.27446 13.875 5.95652 13.875 5.625V1.875C13.875 1.54348 13.7433 1.22554 13.5089 0.991116C13.2745 0.756696 12.9565 0.625 12.625 0.625ZM12.625 5.625H8.875V1.875H12.625V5.625ZM5.125 8.125H1.375C1.04348 8.125 0.725537 8.2567 0.491116 8.49112C0.256696 8.72554 0.125 9.04348 0.125 9.375V13.125C0.125 13.4565 0.256696 13.7745 0.491116 14.0089C0.725537 14.2433 1.04348 14.375 1.375 14.375H5.125C5.45652 14.375 5.77446 14.2433 6.00888 14.0089C6.2433 13.7745 6.375 13.4565 6.375 13.125V9.375C6.375 9.04348 6.2433 8.72554 6.00888 8.49112C5.77446 8.2567 5.45652 8.125 5.125 8.125ZM5.125 13.125H1.375V9.375H5.125V13.125ZM12.625 8.125H8.875C8.54348 8.125 8.22554 8.2567 7.99112 8.49112C7.7567 8.72554 7.625 9.04348 7.625 9.375V13.125C7.625 13.4565 7.7567 13.7745 7.99112 14.0089C8.22554 14.2433 8.54348 14.375 8.875 14.375H12.625C12.9565 14.375 13.2745 14.2433 13.5089 14.0089C13.7433 13.7745 13.875 13.4565 13.875 13.125V9.375C13.875 9.04348 13.7433 8.72554 13.5089 8.49112C13.2745 8.2567 12.9565 8.125 12.625 8.125ZM12.625 13.125H8.875V9.375H12.625V13.125Z" fill="#424242"/>
</svg>
